<?xml version="1.0" encoding="utf-8"?>
<svg version="1.1" id="Layer_1" xmlns="http://www.w3.org/2000/svg" xmlns:xlink="http://www.w3.org/1999/xlink" x="0px" y="0px"
	 width="490px" height="79px" viewBox="0 0 490 79" enable-background="new 0 0 490 79" xml:space="preserve">
<g>
	<path fill="#101111" d="M111.792,52.385c3.197-5.449,6.283-10.933,9.255-16.45c2.972-5.517,5.899-11.118,8.782-16.803
		c0.63,0.042,1.294,0.073,1.993,0.094c0.698,0.021,1.429,0.031,2.195,0.031c0.63,0,1.25-0.031,1.858-0.093
		c0.608-0.062,1.227-0.094,1.858-0.094c0.72,0,1.081,0.208,1.081,0.624c0,0.458-0.248,0.696-0.743,0.718
		c-0.496,0.021-1.081,0.073-1.756,0.155c-1.261,0.136-2.05,1.017-2.364,2.643l-6.215,33.142c-0.135,0.769-0.203,1.378-0.203,1.83
		c0,1.446,0.652,2.169,1.959,2.169c0.405,0,0.731,0.034,0.979,0.102c0.247,0.067,0.372,0.305,0.372,0.711
		c0,0.182-0.091,0.351-0.271,0.509c-0.18,0.158-0.451,0.238-0.811,0.238c-0.361,0-0.969-0.058-1.824-0.169
		c-0.856-0.113-1.959-0.17-3.311-0.17c-1.621,0-2.894,0.068-3.817,0.203c-0.923,0.134-1.498,0.203-1.723,0.203
		c-0.585,0-0.878-0.294-0.878-0.882c0-0.541,0.225-0.812,0.675-0.812c0.45,0,0.99-0.09,1.622-0.271
		c0.99-0.271,1.632-0.757,1.925-1.458c0.292-0.699,0.596-1.772,0.912-3.219l6.62-33.414l-19.996,38.225
		c-0.405,0.814-0.834,1.221-1.284,1.221c-0.27,0-0.439-0.157-0.507-0.474c-0.067-0.317-0.125-0.791-0.168-1.424l-1.554-35.854
		c-3.333,10.302-5.72,18.244-7.161,23.824c-1.442,5.58-2.162,8.777-2.162,9.591c0,0.948,0.191,1.626,0.574,2.032
		c0.382,0.408,0.811,0.701,1.284,0.882c0.473,0.181,0.9,0.327,1.283,0.44c0.382,0.112,0.574,0.351,0.574,0.711
		c0,0.271-0.101,0.497-0.304,0.678s-0.439,0.271-0.709,0.271c-0.451,0-1.081-0.091-1.892-0.271s-1.869-0.271-3.175-0.271
		c-1.125,0-2.061,0.068-2.804,0.203s-1.294,0.203-1.655,0.203c-0.584,0-0.878-0.226-0.878-0.676c0-0.495,0.27-0.799,0.811-0.912
		c0.541-0.112,1.216-0.281,2.027-0.507c0.54-0.135,0.979-0.326,1.317-0.574c0.338-0.247,0.642-0.585,0.912-1.014
		c0.271-0.427,0.517-0.989,0.743-1.688c0.225-0.697,0.495-1.564,0.811-2.601l8.58-29.454c0.09-0.225,0.157-0.517,0.203-0.878
		c0.044-0.36,0.067-0.765,0.067-1.216c0-0.72-0.18-1.193-0.54-1.418c-0.361-0.225-0.755-0.372-1.183-0.439
		c-0.428-0.067-0.822-0.135-1.182-0.203c-0.361-0.067-0.541-0.281-0.541-0.642c0-0.495,0.338-0.743,1.014-0.743
		c0.179,0,0.787,0.042,1.824,0.125c1.036,0.083,2.635,0.125,4.796,0.125c0.9,0,1.407,0.125,1.52,0.375
		c0.112,0.249,0.191,0.74,0.236,1.47L111.792,52.385z"/>
	<path fill="#101111" d="M141.042,51.844c0,2.523,0.551,4.459,1.655,5.81c1.103,1.352,2.533,2.027,4.29,2.027
		c2.432,0,4.796-1.374,7.093-4.121c0.675-0.811,1.103-1.486,1.284-2.026c0.179-0.541,0.473-0.811,0.878-0.811
		c0.271,0,0.405,0.226,0.405,0.675c0,0.361-0.169,0.879-0.506,1.554c-0.338,0.676-0.868,1.486-1.588,2.433
		c-2.928,3.783-5.968,5.675-9.12,5.675c-1.216,0-2.354-0.282-3.412-0.845c-1.059-0.562-1.982-1.352-2.77-2.364
		c-0.789-1.014-1.408-2.24-1.858-3.682c-0.451-1.441-0.676-3.04-0.676-4.797c0-2.477,0.475-4.965,1.427-7.465
		c0.951-2.5,2.355-4.875,4.213-7.127c1.72-2.116,3.521-3.692,5.401-4.729c1.88-1.035,3.681-1.554,5.402-1.554
		c2.038,0,3.691,0.631,4.96,1.892c1.269,1.261,1.903,2.883,1.903,4.864c0,3.333-1.577,5.99-4.729,7.971
		c-3.153,1.982-7.836,3.221-14.05,3.716C141.11,50.381,141.042,51.349,141.042,51.844z M152.223,43.805
		c2.5-2.116,3.75-4.729,3.75-7.836c0-1.26-0.304-2.274-0.912-3.04c-0.608-0.765-1.43-1.148-2.466-1.148
		c-1.037,0-2.083,0.338-3.141,1.013c-1.059,0.676-2.084,1.678-3.074,3.006c-0.991,1.329-1.925,2.962-2.804,4.897
		c-0.878,1.938-1.611,4.145-2.195,6.62C146.109,47.093,149.723,45.923,152.223,43.805z"/>
	<path fill="#101111" d="M172.455,31.983h4.932c0.314,0,0.473,0.135,0.473,0.405c0,0.811-0.271,1.216-0.811,1.216h-4.931
		l-3.648,13.713c-0.676,2.567-1.216,4.651-1.622,6.249c-0.405,1.6-0.608,2.736-0.608,3.412c0,0.45,0.101,0.811,0.304,1.08
		c0.203,0.271,0.416,0.406,0.642,0.406c0.63,0,1.711-1.171,3.243-3.514c0.63-0.945,1.024-1.677,1.182-2.195
		c0.157-0.517,0.394-0.776,0.709-0.776c0.36,0,0.54,0.226,0.54,0.675c0,0.676-0.766,2.14-2.297,4.392
		c-1.171,1.756-2.32,3.085-3.445,3.985c-1.126,0.9-2.072,1.352-2.837,1.352c-0.676,0-1.228-0.305-1.655-0.912
		c-0.429-0.608-0.642-1.452-0.642-2.533c0-2.206,0.855-6.327,2.567-12.362l3.648-12.971h-4.121c-0.135,0-0.248-0.044-0.338-0.135
		c-0.091-0.09-0.135-0.18-0.135-0.271c0-0.811,0.271-1.216,0.811-1.216h4.256l1.688-6.35c0.18-0.63,0.461-1.036,0.845-1.216
		c0.382-0.18,1.001-0.271,1.858-0.271c0.9,0,1.351,0.226,1.351,0.676c0,0.18-0.113,0.675-0.338,1.486L172.455,31.983z"/>
	<path fill="#101111" d="M185.223,49.843c2.567-6.291,4.875-10.986,6.924-14.087c2.049-3.101,4.02-4.652,5.911-4.652
		c0.766,0,1.429,0.304,1.993,0.91c0.562,0.607,0.844,1.427,0.844,2.46c0,1.124-0.27,2.045-0.811,2.764
		c-0.541,0.719-1.148,1.078-1.824,1.078c-0.541,0-0.98-0.168-1.317-0.506c-0.338-0.337-0.507-0.82-0.507-1.449
		c0-0.494-0.113-0.887-0.338-1.179c-0.226-0.291-0.473-0.438-0.743-0.438c-0.766,0-2.173,1.753-4.222,5.258
		c-2.05,3.506-4.448,8.809-7.194,15.908c-0.496,1.304-0.868,2.337-1.115,3.101c-0.248,0.765-0.473,1.349-0.675,1.753
		c-0.203,0.405-0.439,0.664-0.709,0.775c-0.271,0.112-0.699,0.168-1.284,0.168c-1.081,0-1.621-0.27-1.621-0.809
		c0-0.09,0.067-0.382,0.203-0.876l4.999-19.004c0.314-1.212,0.562-2.268,0.743-3.167c0.179-0.898,0.27-1.662,0.27-2.292
		c0-0.853-0.338-1.28-1.013-1.28c-0.586,0-1.172,0.315-1.756,0.946c-0.586,0.631-1.138,1.317-1.655,2.061
		c-0.518,0.743-0.991,1.418-1.418,2.026c-0.429,0.608-0.733,0.912-0.912,0.912c-0.315,0-0.473-0.225-0.473-0.676
		c0-0.179,0.225-0.675,0.676-1.486c0.45-0.811,1.193-1.824,2.229-3.04c2.432-2.882,4.48-4.324,6.147-4.324
		c0.675,0,1.216,0.259,1.621,0.776s0.608,1.292,0.608,2.326c0,0.359-0.067,1.101-0.203,2.224c-0.135,1.125-0.405,2.472-0.811,4.045
		L185.223,49.843z"/>
	<path fill="#101111" d="M205.961,55.289c-0.405,1.352-0.608,2.229-0.608,2.635c0,0.946,0.314,1.419,0.946,1.419
		c1.125,0,2.341-1.148,3.648-3.445c0.72-1.216,1.205-2.104,1.453-2.669c0.247-0.562,0.461-0.844,0.642-0.844
		c0.314,0,0.473,0.158,0.473,0.473c0,0.767-0.901,2.522-2.702,5.27c-1.036,1.576-2.072,2.759-3.107,3.546
		c-1.037,0.788-2.004,1.183-2.905,1.183c-1.802,0-2.702-1.126-2.702-3.378c0-1.171,0.247-2.623,0.743-4.357
		c0.495-1.732,1.17-3.816,2.026-6.248l2.77-8.106c0.405-1.217,0.743-2.264,1.013-3.142c0.271-0.878,0.405-1.632,0.405-2.263
		c0-0.495-0.057-0.855-0.169-1.081c-0.113-0.225-0.372-0.338-0.777-0.338c-0.541,0-1.081,0.282-1.621,0.845
		c-0.541,0.563-1.047,1.194-1.52,1.892c-0.473,0.699-0.901,1.329-1.284,1.891c-0.383,0.564-0.665,0.845-0.844,0.845
		c-0.226,0-0.338-0.203-0.338-0.608c0-0.18,0.18-0.608,0.541-1.284c0.36-0.676,0.946-1.531,1.756-2.567
		c2.297-2.882,4.324-4.324,6.08-4.324c0.765,0,1.373,0.248,1.824,0.743c0.45,0.496,0.676,1.194,0.676,2.094
		c0,0.946-0.159,1.982-0.473,3.107c-0.315,1.126-0.699,2.364-1.148,3.715L205.961,55.289z M211.669,20.195
		c0.652-0.923,1.385-1.385,2.195-1.385c0.585,0,1.058,0.226,1.419,0.676c0.36,0.451,0.541,1.037,0.541,1.756
		c0,1.307-0.316,2.432-0.946,3.378c-0.631,0.946-1.351,1.418-2.162,1.418c-0.631,0-1.126-0.247-1.486-0.743
		c-0.361-0.495-0.541-1.193-0.541-2.094C210.69,22.12,211.016,21.118,211.669,20.195z"/>
	<path fill="#101111" d="M238.927,31.544c1.036,0.653,1.554,1.587,1.554,2.803c0,0.451-0.18,0.878-0.541,1.284
		c-0.361,0.405-0.856,0.608-1.486,0.608c-0.767,0-1.408-0.203-1.925-0.608c-0.519-0.405-0.991-0.844-1.419-1.317
		c-0.428-0.473-0.834-0.912-1.216-1.317c-0.383-0.405-0.822-0.608-1.317-0.608c-0.991,0-2.106,0.451-3.344,1.351
		c-1.239,0.901-2.41,2.151-3.513,3.75c-1.104,1.599-2.038,3.525-2.803,5.776c-0.767,2.253-1.148,4.729-1.148,7.431
		c0,2.883,0.574,5.09,1.723,6.621s2.758,2.297,4.83,2.297c2.116,0,4.391-1.352,6.823-4.054c0.72-0.811,1.183-1.486,1.385-2.026
		c0.203-0.541,0.506-0.811,0.912-0.811c0.315,0,0.473,0.226,0.473,0.675c0,0.361-0.236,0.946-0.709,1.757
		c-0.473,0.811-1.206,1.779-2.195,2.904c-1.442,1.667-2.895,2.917-4.357,3.75c-1.464,0.833-2.984,1.25-4.56,1.25
		c-1.307,0-2.511-0.282-3.614-0.845c-1.104-0.562-2.072-1.352-2.905-2.364c-0.834-1.014-1.486-2.24-1.959-3.682
		c-0.473-1.441-0.709-3.04-0.709-4.797c0-2.477,0.495-4.965,1.486-7.465c0.99-2.5,2.454-4.785,4.391-6.857
		c1.892-2.297,3.907-3.952,6.046-4.965c2.138-1.014,4.087-1.52,5.843-1.52C236.472,30.564,237.891,30.892,238.927,31.544z"/>
	<path fill="#101111" d="M253.856,46.163c1.081,1.357,1.937,2.635,2.567,3.834c0.63,1.199,0.946,2.478,0.946,3.833
		c0,1.223-0.26,2.377-0.777,3.462c-0.519,1.085-1.193,2.035-2.026,2.85c-0.834,0.814-1.813,1.471-2.938,1.968
		c-1.127,0.497-2.297,0.746-3.514,0.746c-0.945,0-1.891-0.125-2.837-0.371c-0.945-0.248-1.802-0.574-2.567-0.98
		c-0.765-0.405-1.385-0.854-1.858-1.351c-0.473-0.495-0.709-0.968-0.709-1.419c0-1.44,0.147-2.556,0.439-3.344
		c0.293-0.787,0.642-1.183,1.047-1.183c0.271,0,0.496,0.102,0.676,0.305c0.179,0.202,0.348,0.473,0.506,0.811
		c0.157,0.338,0.304,0.698,0.439,1.081c0.135,0.383,0.314,0.776,0.54,1.182c0.72,1.307,1.53,2.275,2.433,2.905
		c0.9,0.631,1.868,0.945,2.904,0.945c1.261,0,2.342-0.528,3.243-1.587c0.9-1.058,1.351-2.354,1.351-3.885
		c0-1.035-0.214-1.993-0.642-2.871c-0.429-0.878-1.025-1.79-1.79-2.736l-2.838-3.445c-1.08-1.306-1.914-2.543-2.499-3.715
		c-0.586-1.171-0.878-2.342-0.878-3.513c0-1.125,0.236-2.229,0.709-3.31s1.103-2.037,1.892-2.871
		c0.787-0.833,1.699-1.497,2.735-1.993c1.036-0.495,2.139-0.743,3.311-0.743c0.855,0,1.699,0.083,2.533,0.25
		c0.833,0.167,1.588,0.395,2.264,0.686c0.675,0.292,1.216,0.647,1.621,1.067c0.405,0.421,0.607,0.879,0.607,1.374
		c0,2.162-0.428,3.243-1.283,3.243c-0.361,0-0.767-0.258-1.216-0.777c-0.451-0.517-0.979-1.091-1.588-1.723
		c-0.607-0.63-1.283-1.204-2.026-1.723c-0.743-0.517-1.588-0.777-2.533-0.777c-1.037,0-1.948,0.419-2.736,1.256
		c-0.788,0.837-1.182,1.888-1.182,3.155c0,0.815,0.179,1.595,0.54,2.341c0.36,0.746,0.878,1.549,1.554,2.408L253.856,46.163z"/>
	<path fill="#101111" d="M272.974,44.751c0.271,0,0.405,0.135,0.405,0.405c0,0.181-0.023,0.315-0.067,0.405l-1.081,2.499
		c-0.271,0.586-0.563,0.879-0.878,0.879h-9.931c-0.314,0-0.473-0.136-0.473-0.405c0-0.18,0.023-0.314,0.067-0.405l1.081-2.5
		c0.27-0.585,0.562-0.878,0.878-0.878H272.974z"/>
	<path fill="#101111" d="M310.128,28.268c-0.135,0.585-0.45,0.878-0.945,0.878c-0.54,0-0.811-0.473-0.811-1.418
		c0-0.405,0.022-0.889,0.067-1.453c0.044-0.562,0.067-1.227,0.067-1.993c0-1.666-0.146-2.814-0.438-3.445
		c-0.294-0.63-1.093-0.946-2.398-0.946c-1.938,0-4.099,0.473-6.485,1.418c-2.388,0.946-4.64,2.365-6.756,4.256
		c-3.152,2.837-5.562,6.113-7.229,9.829c-1.666,3.715-2.499,7.623-2.499,11.721c0,4.414,0.99,7.848,2.973,10.302
		c1.98,2.455,4.684,3.682,8.106,3.682c1.351,0,2.51-0.135,3.479-0.405c0.969-0.27,1.768-0.72,2.398-1.351
		c0.495-1.621,0.867-3.017,1.115-4.188c0.246-1.171,0.438-2.071,0.574-2.702l1.013-5.135c0.136-0.854,0.203-1.351,0.203-1.485
		c0-1.171-0.474-1.892-1.419-2.162c-0.315-0.09-0.631-0.135-0.945-0.135c-0.316,0-0.608-0.011-0.879-0.034
		c-0.27-0.022-0.496-0.09-0.676-0.202s-0.27-0.326-0.27-0.643c0-0.54,0.405-0.811,1.216-0.811c0.63,0,1.419,0.046,2.364,0.136
		c0.946,0.091,2.049,0.135,3.311,0.135c1.306,0,2.387-0.067,3.242-0.203c0.855-0.135,1.486-0.202,1.892-0.202
		c0.541,0,0.811,0.226,0.811,0.676c0,0.36-0.091,0.597-0.27,0.709c-0.181,0.113-0.417,0.203-0.71,0.271s-0.607,0.135-0.945,0.202
		s-0.665,0.215-0.979,0.439c-0.541,0.45-0.979,1.126-1.317,2.026c-0.338,0.901-0.665,2.117-0.979,3.648l-0.743,3.783
		c-0.136,0.721-0.315,1.621-0.541,2.702c-0.226,1.08-0.405,2.409-0.54,3.985c-3.153,1.936-6.711,2.905-10.674,2.905
		c-2.342,0-4.492-0.396-6.451-1.183s-3.648-1.902-5.066-3.344c-1.419-1.441-2.523-3.176-3.311-5.202
		c-0.788-2.026-1.183-4.256-1.183-6.688c0-4.413,1.014-8.5,3.04-12.261c2.027-3.76,5.021-7.127,8.985-10.1
		c2.927-2.162,6.08-3.793,9.457-4.898c3.378-1.103,6.643-1.655,9.796-1.655c2.251,0,3.378,0.451,3.378,1.351
		c0,0.226-0.023,0.383-0.067,0.473L310.128,28.268z"/>
	<path fill="#101111" d="M320.87,49.843c2.566-6.291,4.874-10.986,6.924-14.087c2.049-3.101,4.02-4.652,5.911-4.652
		c0.766,0,1.43,0.304,1.993,0.91c0.562,0.607,0.845,1.427,0.845,2.46c0,1.124-0.271,2.045-0.811,2.764
		c-0.541,0.719-1.148,1.078-1.824,1.078c-0.541,0-0.979-0.168-1.317-0.506c-0.338-0.337-0.507-0.82-0.507-1.449
		c0-0.494-0.113-0.887-0.338-1.179c-0.226-0.291-0.473-0.438-0.743-0.438c-0.767,0-2.173,1.753-4.222,5.258
		c-2.05,3.506-4.448,8.809-7.195,15.908c-0.496,1.304-0.867,2.337-1.114,3.101c-0.248,0.765-0.473,1.349-0.676,1.753
		c-0.202,0.405-0.438,0.664-0.709,0.775c-0.271,0.112-0.699,0.168-1.283,0.168c-1.081,0-1.622-0.27-1.622-0.809
		c0-0.09,0.068-0.382,0.203-0.876l4.999-19.004c0.314-1.212,0.562-2.268,0.743-3.167c0.18-0.898,0.271-1.662,0.271-2.292
		c0-0.853-0.338-1.28-1.014-1.28c-0.586,0-1.172,0.315-1.757,0.946c-0.586,0.631-1.138,1.317-1.654,2.061
		c-0.519,0.743-0.991,1.418-1.419,2.026c-0.429,0.608-0.732,0.912-0.912,0.912c-0.315,0-0.473-0.225-0.473-0.676
		c0-0.179,0.225-0.675,0.675-1.486s1.193-1.824,2.229-3.04c2.433-2.882,4.481-4.324,6.147-4.324c0.676,0,1.216,0.259,1.622,0.776
		c0.405,0.517,0.607,1.292,0.607,2.326c0,0.359-0.067,1.101-0.202,2.224c-0.136,1.125-0.405,2.472-0.812,4.045L320.87,49.843z"/>
	<path fill="#101111" d="M358.497,53.263c-0.271,0.945-0.45,1.712-0.54,2.297c-0.091,0.586-0.136,0.969-0.136,1.148
		c0,0.945,0.247,1.419,0.743,1.419c0.766,0,1.824-0.946,3.176-2.838c0.584-0.811,0.968-1.44,1.148-1.892
		c0.179-0.449,0.449-0.675,0.811-0.675c0.225,0,0.338,0.158,0.338,0.473c0,0.945-0.722,2.432-2.162,4.458
		c-2.478,3.604-4.661,5.405-6.553,5.405c-1.442,0-2.162-0.97-2.162-2.905c0-1.125,0.146-2.285,0.439-3.479
		c0.292-1.192,0.618-2.442,0.979-3.749l2.026-7.498c-3.378,5.81-6.35,10.178-8.917,13.105s-4.977,4.391-7.229,4.391
		c-1.667,0-2.995-0.631-3.985-1.892c-0.99-1.26-1.486-3.084-1.486-5.472c0-2.477,0.574-5.111,1.723-7.904
		c1.148-2.792,2.915-5.674,5.303-8.646c2.252-2.837,4.561-4.942,6.925-6.316c2.364-1.374,4.446-2.061,6.249-2.061
		c1.216,0,2.195,0.236,2.938,0.709c0.743,0.473,1.271,0.709,1.587,0.709c0.18,0,0.349-0.101,0.507-0.304
		c0.157-0.203,0.349-0.428,0.574-0.676c0.225-0.247,0.507-0.473,0.845-0.675s0.754-0.304,1.25-0.304c0.63,0,1.058,0.057,1.283,0.169
		c0.225,0.113,0.338,0.417,0.338,0.912c0,0.315-0.113,0.811-0.338,1.486L358.497,53.263z M350.087,34.516
		c-2.05,1.689-4.087,4.29-6.114,7.802c-1.577,2.748-2.747,5.236-3.513,7.465c-0.767,2.229-1.148,4.11-1.148,5.642
		c0,1.307,0.293,2.297,0.878,2.972c0.585,0.676,1.328,1.014,2.229,1.014c1.261,0,2.646-0.754,4.155-2.263
		c1.508-1.509,3.276-3.75,5.303-6.722c4.729-6.936,7.093-11.709,7.093-14.322c0-1.306-0.337-2.319-1.013-3.04
		c-0.676-0.72-1.621-1.081-2.838-1.081C353.812,31.983,352.136,32.827,350.087,34.516z"/>
	<path fill="#101111" d="M378.695,31.442c0.9-0.225,1.768-0.394,2.602-0.506c0.832-0.112,1.632-0.169,2.397-0.169
		c3.107,0,5.506,0.901,7.195,2.702c1.688,1.802,2.533,4.391,2.533,7.769c0,2.566-0.463,5.157-1.385,7.769
		c-0.924,2.612-2.264,5.066-4.02,7.363c-3.334,4.279-6.756,6.418-10.269,6.418c-1.172,0-2.219-0.236-3.142-0.71
		c-0.924-0.473-1.836-1.204-2.736-2.195l-2.364,11.62c-0.091,0.449-0.135,0.832-0.135,1.148c0,0.675,0.202,1.158,0.608,1.452
		c0.405,0.292,0.866,0.517,1.385,0.676c0.517,0.157,0.979,0.292,1.385,0.405c0.405,0.111,0.607,0.326,0.607,0.642
		c0,0.495-0.248,0.743-0.743,0.743c-0.496,0-1.328-0.079-2.499-0.236c-1.172-0.159-2.657-0.236-4.459-0.236
		c-1.26,0-2.297,0.077-3.107,0.236c-0.811,0.157-1.44,0.236-1.892,0.236c-0.765,0-1.148-0.181-1.148-0.541
		c0-0.496,0.282-0.788,0.845-0.878c0.563-0.091,1.317-0.315,2.263-0.676c0.541-0.226,0.958-0.438,1.25-0.642
		c0.294-0.202,0.53-0.45,0.709-0.743c0.181-0.293,0.327-0.665,0.439-1.114c0.113-0.451,0.26-1.037,0.439-1.757l8.646-35.669
		c-1.036,0.541-1.847,0.98-2.432,1.317c-0.586,0.338-0.991,0.507-1.216,0.507c-0.361,0-0.541-0.112-0.541-0.338
		c0-0.584,0.383-1.115,1.148-1.587c0.766-0.473,1.937-1.024,3.513-1.655l1.486-6.485c0.136-0.54,0.293-0.878,0.474-1.013
		c0.179-0.135,0.495-0.203,0.945-0.203h0.878c0.631,0,1.069,0.012,1.317,0.034c0.247,0.023,0.372,0.147,0.372,0.372v0.271
		c0,0.135-0.046,0.315-0.136,0.54L378.695,31.442z M373.291,53.972c-0.181,0.95-0.271,1.811-0.271,2.579
		c0,1.448,0.372,2.58,1.115,3.395s1.745,1.222,3.006,1.222c3.197,0,5.854-2.059,7.972-6.178c1.53-2.94,2.657-5.734,3.378-8.382
		c0.72-2.647,1.081-4.876,1.081-6.686c0-2.353-0.608-4.163-1.824-5.43c-1.216-1.267-2.973-1.901-5.27-1.901
		c-1.081,0-2.478,0.249-4.188,0.747l-4.256,17.308C373.719,51.913,373.471,53.022,373.291,53.972z"/>
	<path fill="#101111" d="M402.812,46.169c2.656-5.179,5.101-9.04,7.33-11.585c2.229-2.544,4.425-3.817,6.586-3.817
		c1.666,0,3.017,0.729,4.054,2.186c1.035,1.457,1.554,3.531,1.554,6.22c0,2.421-0.405,5.021-1.216,7.8
		c-0.811,2.78-1.959,5.402-3.445,7.868c-1.577,2.556-3.232,4.497-4.966,5.822c-1.734,1.325-3.276,1.988-4.627,1.988
		c-1.127,0-2.005-0.281-2.635-0.844c-0.632-0.562-0.946-1.316-0.946-2.26c0-0.672,0.18-1.21,0.541-1.613
		c0.359-0.403,0.787-0.605,1.283-0.605c0.405,0,0.743,0.157,1.014,0.471c0.27,0.314,0.517,0.661,0.743,1.043
		c0.225,0.381,0.483,0.728,0.776,1.041c0.293,0.315,0.687,0.471,1.183,0.471c0.9,0,1.699-0.515,2.397-1.545s1.475-2.599,2.331-4.705
		c0.63-1.523,1.171-3.036,1.621-4.537s0.811-2.935,1.081-4.302c0.271-1.365,0.473-2.62,0.608-3.764
		c0.135-1.142,0.202-2.094,0.202-2.856c0-1.568-0.281-2.756-0.844-3.562c-0.564-0.806-1.296-1.209-2.196-1.209
		c-1.802,0-3.907,1.554-6.316,4.661c-2.409,3.107-4.74,7.566-6.991,13.375c-1.172,3.108-1.993,5.428-2.466,6.959
		c-0.474,1.531-0.755,2.364-0.845,2.499c-0.226,0.405-0.856,0.608-1.892,0.608c-0.495,0-0.845-0.058-1.047-0.169
		c-0.203-0.112-0.304-0.416-0.304-0.912c0-0.225,0.067-0.608,0.202-1.148l9.796-38.101c0.314-1.216,0.473-2.094,0.473-2.635
		c0-0.314-0.136-0.596-0.405-0.844c-0.271-0.247-0.653-0.372-1.148-0.372c-0.136,0-0.26,0.012-0.372,0.034
		c-0.112,0.023-0.236,0.034-0.371,0.034c-0.721,0-1.081-0.225-1.081-0.675c0-0.271,0.102-0.461,0.304-0.574
		c0.203-0.112,0.474-0.191,0.811-0.236c0.338-0.044,0.754-0.078,1.25-0.102c0.495-0.022,1.036-0.101,1.621-0.236
		c1.217-0.225,2.095-0.562,2.635-1.013c0.541-0.45,1.014-0.676,1.419-0.676c0.225,0,0.338,0.181,0.338,0.541
		c0,0.045-0.012,0.125-0.034,0.236c-0.023,0.113-0.057,0.282-0.101,0.507L402.812,46.169z"/>
	<path fill="#101111" d="M431.049,55.289c-0.405,1.352-0.607,2.229-0.607,2.635c0,0.946,0.314,1.419,0.945,1.419
		c1.125,0,2.341-1.148,3.648-3.445c0.72-1.216,1.204-2.104,1.452-2.669c0.247-0.562,0.461-0.844,0.642-0.844
		c0.314,0,0.473,0.158,0.473,0.473c0,0.767-0.901,2.522-2.702,5.27c-1.036,1.576-2.072,2.759-3.107,3.546
		c-1.036,0.788-2.005,1.183-2.904,1.183c-1.803,0-2.703-1.126-2.703-3.378c0-1.171,0.247-2.623,0.743-4.357
		c0.495-1.732,1.171-3.816,2.027-6.248l2.77-8.106c0.405-1.217,0.743-2.264,1.014-3.142c0.27-0.878,0.405-1.632,0.405-2.263
		c0-0.495-0.058-0.855-0.169-1.081c-0.113-0.225-0.372-0.338-0.777-0.338c-0.54,0-1.081,0.282-1.621,0.845
		c-0.54,0.563-1.047,1.194-1.521,1.892c-0.473,0.699-0.901,1.329-1.283,1.891c-0.383,0.564-0.665,0.845-0.845,0.845
		c-0.226,0-0.337-0.203-0.337-0.608c0-0.18,0.179-0.608,0.54-1.284c0.36-0.676,0.945-1.531,1.757-2.567
		c2.296-2.882,4.323-4.324,6.079-4.324c0.766,0,1.374,0.248,1.824,0.743c0.45,0.496,0.676,1.194,0.676,2.094
		c0,0.946-0.158,1.982-0.473,3.107c-0.316,1.126-0.699,2.364-1.148,3.715L431.049,55.289z M436.758,20.195
		c0.652-0.923,1.385-1.385,2.195-1.385c0.585,0,1.058,0.226,1.418,0.676c0.36,0.451,0.541,1.037,0.541,1.756
		c0,1.307-0.315,2.432-0.946,3.378s-1.351,1.418-2.161,1.418c-0.632,0-1.127-0.247-1.486-0.743
		c-0.361-0.495-0.541-1.193-0.541-2.094C435.777,22.12,436.104,21.118,436.758,20.195z"/>
	<path fill="#101111" d="M464.016,31.544c1.035,0.653,1.554,1.587,1.554,2.803c0,0.451-0.181,0.878-0.541,1.284
		s-0.855,0.608-1.486,0.608c-0.766,0-1.408-0.203-1.925-0.608c-0.519-0.405-0.991-0.844-1.419-1.317
		c-0.429-0.473-0.834-0.912-1.216-1.317c-0.383-0.405-0.822-0.608-1.317-0.608c-0.991,0-2.105,0.451-3.344,1.351
		c-1.239,0.901-2.41,2.151-3.513,3.75c-1.104,1.599-2.039,3.525-2.804,5.776c-0.767,2.253-1.148,4.729-1.148,7.431
		c0,2.883,0.574,5.09,1.723,6.621s2.758,2.297,4.83,2.297c2.116,0,4.391-1.352,6.823-4.054c0.72-0.811,1.182-1.486,1.385-2.026
		c0.202-0.541,0.507-0.811,0.912-0.811c0.314,0,0.473,0.226,0.473,0.675c0,0.361-0.236,0.946-0.709,1.757
		c-0.474,0.811-1.206,1.779-2.196,2.904c-1.441,1.667-2.894,2.917-4.356,3.75c-1.465,0.833-2.984,1.25-4.561,1.25
		c-1.307,0-2.511-0.282-3.614-0.845s-2.072-1.352-2.904-2.364c-0.834-1.014-1.486-2.24-1.959-3.682
		c-0.474-1.441-0.71-3.04-0.71-4.797c0-2.477,0.495-4.965,1.486-7.465c0.99-2.5,2.454-4.785,4.391-6.857
		c1.892-2.297,3.907-3.952,6.047-4.965c2.139-1.014,4.087-1.52,5.843-1.52C461.56,30.564,462.979,30.892,464.016,31.544z"/>
	<path fill="#101111" d="M478.944,46.163c1.081,1.357,1.937,2.635,2.567,3.834c0.63,1.199,0.946,2.478,0.946,3.833
		c0,1.223-0.26,2.377-0.777,3.462c-0.519,1.085-1.193,2.035-2.026,2.85c-0.834,0.814-1.813,1.471-2.938,1.968
		c-1.127,0.497-2.297,0.746-3.514,0.746c-0.945,0-1.891-0.125-2.837-0.371c-0.945-0.248-1.802-0.574-2.567-0.98
		c-0.765-0.405-1.385-0.854-1.857-1.351c-0.473-0.495-0.709-0.968-0.709-1.419c0-1.44,0.146-2.556,0.438-3.344
		c0.294-0.787,0.643-1.183,1.048-1.183c0.27,0,0.496,0.102,0.675,0.305c0.18,0.202,0.349,0.473,0.507,0.811
		c0.157,0.338,0.304,0.698,0.439,1.081c0.135,0.383,0.314,0.776,0.54,1.182c0.72,1.307,1.53,2.275,2.433,2.905
		c0.9,0.631,1.868,0.945,2.904,0.945c1.261,0,2.342-0.528,3.243-1.587c0.9-1.058,1.351-2.354,1.351-3.885
		c0-1.035-0.214-1.993-0.642-2.871c-0.429-0.878-1.025-1.79-1.79-2.736l-2.838-3.445c-1.08-1.306-1.914-2.543-2.499-3.715
		c-0.586-1.171-0.878-2.342-0.878-3.513c0-1.125,0.236-2.229,0.709-3.31s1.103-2.037,1.892-2.871
		c0.787-0.833,1.699-1.497,2.735-1.993c1.036-0.495,2.139-0.743,3.311-0.743c0.855,0,1.699,0.083,2.533,0.25
		c0.833,0.167,1.588,0.395,2.264,0.686c0.675,0.292,1.216,0.647,1.621,1.067c0.405,0.421,0.607,0.879,0.607,1.374
		c0,2.162-0.428,3.243-1.283,3.243c-0.361,0-0.767-0.258-1.216-0.777c-0.451-0.517-0.979-1.091-1.588-1.723
		c-0.607-0.63-1.283-1.204-2.026-1.723c-0.743-0.517-1.588-0.777-2.533-0.777c-1.037,0-1.948,0.419-2.736,1.256
		c-0.788,0.837-1.182,1.888-1.182,3.155c0,0.815,0.179,1.595,0.54,2.341c0.36,0.746,0.878,1.549,1.554,2.408L478.944,46.163z"/>
</g>
<g>
	<path fill="#101111" d="M4.806,51.078V22.126c0-1.005,0.289-1.923,0.867-2.752c0.578-0.83,1.344-1.42,2.299-1.772l26.54-9.651
		C35.064,7.75,35.617,7.65,36.17,7.65c0.552,0,1.105,0.101,1.659,0.301l26.54,9.651c0.955,0.352,1.721,0.942,2.299,1.772
		c0.578,0.829,0.867,1.747,0.867,2.752v28.952c0,0.88-0.226,1.696-0.679,2.45c-0.452,0.754-1.068,1.345-1.847,1.771L38.47,69.776
		c-0.704,0.401-1.47,0.603-2.299,0.603c-0.83,0-1.596-0.201-2.3-0.603L7.332,55.3c-0.779-0.427-1.395-1.018-1.847-1.771
		C5.032,52.774,4.806,51.958,4.806,51.078z M9.857,22.05l26.313,9.575l26.313-9.575L36.17,12.475L9.857,22.05z M38.583,64.234
		L62.71,51.078V27.102l-24.127,8.784V64.234z"/>
</g>
<g>
</g>
<g>
</g>
<g>
</g>
<g>
</g>
<g>
</g>
<g>
</g>
<g>
</g>
<g>
</g>
<g>
</g>
<g>
</g>
<g>
</g>
<g>
</g>
<g>
</g>
<g>
</g>
<g>
</g>
</svg>
