<?xml version="1.0" encoding="utf-8"?>
<!-- Generator: Adobe Illustrator 16.0.0, SVG Export Plug-In . SVG Version: 6.00 Build 0)  -->
<!DOCTYPE svg PUBLIC "-//W3C//DTD SVG 1.1//EN" "http://www.w3.org/Graphics/SVG/1.1/DTD/svg11.dtd">
<svg version="1.1" id="Layer_1" xmlns="http://www.w3.org/2000/svg" xmlns:xlink="http://www.w3.org/1999/xlink" x="0px" y="0px"
	 width="480px" height="79px" viewBox="0 0 480 79" enable-background="new 0 0 480 79" xml:space="preserve">
<g>
	<path fill="#101111" d="M96.164,52.427c2.84-4.839,5.58-9.709,8.22-14.61c2.64-4.899,5.24-9.875,7.8-14.924
		c0.56,0.038,1.149,0.064,1.77,0.083c0.62,0.019,1.27,0.027,1.95,0.027c0.56,0,1.11-0.027,1.65-0.083
		c0.54-0.055,1.089-0.083,1.65-0.083c0.64,0,0.96,0.185,0.96,0.554c0,0.407-0.22,0.619-0.66,0.638
		c-0.441,0.019-0.96,0.064-1.56,0.138c-1.121,0.121-1.821,0.904-2.1,2.348l-5.52,29.436c-0.12,0.683-0.18,1.225-0.18,1.626
		c0,1.284,0.58,1.926,1.74,1.926c0.36,0,0.649,0.03,0.87,0.091c0.219,0.06,0.33,0.271,0.33,0.632c0,0.161-0.081,0.311-0.24,0.451
		c-0.16,0.141-0.4,0.211-0.72,0.211c-0.32,0-0.86-0.051-1.62-0.149c-0.761-0.101-1.74-0.151-2.94-0.151
		c-1.44,0-2.57,0.062-3.39,0.181c-0.82,0.119-1.331,0.181-1.53,0.181c-0.52,0-0.78-0.261-0.78-0.783c0-0.48,0.2-0.722,0.6-0.722
		c0.399,0,0.879-0.08,1.44-0.241c0.879-0.24,1.449-0.672,1.71-1.295c0.26-0.621,0.53-1.574,0.81-2.859l5.88-29.676l-17.76,33.951
		c-0.36,0.723-0.74,1.084-1.14,1.084c-0.24,0-0.39-0.14-0.45-0.421s-0.11-0.702-0.15-1.265l-1.38-31.844
		c-2.961,9.15-5.081,16.204-6.36,21.16c-1.28,4.956-1.92,7.796-1.92,8.518c0,0.843,0.17,1.445,0.51,1.806
		c0.339,0.362,0.72,0.623,1.14,0.783c0.42,0.16,0.8,0.29,1.14,0.391c0.339,0.101,0.51,0.312,0.51,0.632
		c0,0.241-0.09,0.441-0.27,0.602c-0.18,0.161-0.39,0.241-0.63,0.241c-0.4,0-0.96-0.08-1.68-0.24c-0.72-0.159-1.661-0.239-2.82-0.239
		c-0.999,0-1.83,0.06-2.49,0.18s-1.149,0.18-1.47,0.18c-0.519,0-0.78-0.199-0.78-0.6c0-0.439,0.24-0.71,0.72-0.811
		c0.48-0.099,1.08-0.249,1.8-0.449c0.48-0.12,0.87-0.29,1.17-0.511c0.3-0.219,0.57-0.519,0.81-0.899c0.24-0.38,0.459-0.88,0.66-1.5
		c0.2-0.62,0.439-1.39,0.72-2.311l7.62-26.16c0.08-0.2,0.14-0.459,0.18-0.78c0.039-0.32,0.06-0.68,0.06-1.08
		c0-0.64-0.16-1.06-0.48-1.26c-0.32-0.2-0.67-0.33-1.05-0.39c-0.381-0.06-0.73-0.12-1.05-0.18c-0.321-0.06-0.48-0.25-0.48-0.57
		c0-0.44,0.3-0.66,0.9-0.66c0.159,0,0.699,0.038,1.62,0.111c0.919,0.074,2.34,0.11,4.26,0.11c0.8,0,1.25,0.112,1.35,0.333
		c0.099,0.221,0.169,0.657,0.21,1.306L96.164,52.427z"/>
	<path fill="#101111" d="M122.144,51.947c0,2.24,0.489,3.96,1.47,5.16c0.979,1.199,2.25,1.8,3.81,1.8c2.16,0,4.26-1.22,6.3-3.66
		c0.6-0.72,0.979-1.32,1.14-1.8c0.159-0.48,0.42-0.721,0.78-0.721c0.24,0,0.36,0.201,0.36,0.601c0,0.32-0.15,0.78-0.45,1.38
		c-0.3,0.6-0.771,1.32-1.41,2.16c-2.601,3.359-5.3,5.04-8.1,5.04c-1.08,0-2.09-0.251-3.03-0.75c-0.94-0.5-1.761-1.2-2.46-2.101
		c-0.7-0.899-1.25-1.989-1.65-3.27c-0.4-1.279-0.6-2.7-0.6-4.26c0-2.199,0.422-4.41,1.268-6.63c0.845-2.221,2.091-4.329,3.741-6.331
		c1.528-1.879,3.128-3.279,4.797-4.2c1.67-0.92,3.269-1.38,4.798-1.38c1.81,0,3.278,0.561,4.405,1.68
		c1.127,1.12,1.69,2.561,1.69,4.32c0,2.96-1.4,5.321-4.2,7.081c-2.8,1.761-6.96,2.86-12.479,3.3
		C122.204,50.647,122.144,51.508,122.144,51.947z M132.074,44.807c2.22-1.879,3.33-4.199,3.33-6.959c0-1.12-0.27-2.02-0.81-2.7
		c-0.54-0.68-1.271-1.02-2.19-1.02c-0.921,0-1.851,0.3-2.79,0.9c-0.94,0.6-1.851,1.491-2.73,2.67c-0.88,1.18-1.71,2.631-2.49,4.35
		c-0.78,1.721-1.431,3.681-1.95,5.88C126.644,47.728,129.854,46.688,132.074,44.807z"/>
	<path fill="#101111" d="M150.043,34.307h4.38c0.279,0,0.42,0.12,0.42,0.36c0,0.72-0.24,1.08-0.72,1.08h-4.38l-3.24,12.18
		c-0.6,2.28-1.08,4.131-1.44,5.55c-0.36,1.421-0.54,2.431-0.54,3.03c0,0.4,0.09,0.72,0.27,0.96c0.18,0.24,0.369,0.36,0.57,0.36
		c0.56,0,1.52-1.04,2.88-3.12c0.56-0.84,0.91-1.489,1.05-1.95c0.14-0.459,0.35-0.689,0.63-0.689c0.32,0,0.48,0.2,0.48,0.6
		c0,0.6-0.681,1.9-2.04,3.9c-1.041,1.56-2.061,2.74-3.06,3.54c-1,0.799-1.84,1.199-2.52,1.199c-0.6,0-1.09-0.27-1.47-0.81
		c-0.381-0.54-0.57-1.29-0.57-2.25c0-1.959,0.76-5.619,2.28-10.98l3.24-11.52h-3.66c-0.12,0-0.221-0.04-0.3-0.12
		c-0.081-0.08-0.12-0.159-0.12-0.24c0-0.72,0.24-1.08,0.72-1.08h3.78l1.5-5.64c0.159-0.56,0.41-0.919,0.75-1.08
		c0.339-0.159,0.89-0.24,1.65-0.24c0.799,0,1.2,0.201,1.2,0.6c0,0.16-0.1,0.6-0.3,1.32L150.043,34.307z"/>
	<path fill="#101111" d="M161.383,50.17c2.28-5.588,4.329-9.758,6.15-12.512c1.82-2.754,3.57-4.132,5.25-4.132
		c0.68,0,1.27,0.27,1.77,0.808c0.5,0.539,0.75,1.268,0.75,2.186c0,0.999-0.24,1.817-0.72,2.455c-0.48,0.639-1.02,0.958-1.62,0.958
		c-0.48,0-0.87-0.149-1.17-0.449c-0.3-0.299-0.45-0.729-0.45-1.287c0-0.439-0.101-0.788-0.3-1.047
		c-0.201-0.259-0.42-0.389-0.66-0.389c-0.681,0-1.93,1.557-3.75,4.67c-1.821,3.113-3.951,7.823-6.39,14.129
		c-0.44,1.157-0.771,2.075-0.99,2.754c-0.221,0.679-0.42,1.197-0.6,1.557c-0.18,0.359-0.39,0.59-0.63,0.688
		c-0.24,0.1-0.621,0.149-1.14,0.149c-0.96,0-1.44-0.239-1.44-0.718c0-0.08,0.06-0.34,0.18-0.778l4.44-16.879
		c0.28-1.076,0.5-2.014,0.66-2.812c0.16-0.798,0.24-1.477,0.24-2.035c0-0.758-0.3-1.137-0.9-1.137c-0.52,0-1.041,0.28-1.56,0.84
		c-0.521,0.561-1.011,1.17-1.47,1.83c-0.46,0.66-0.88,1.26-1.26,1.8c-0.381,0.54-0.651,0.81-0.81,0.81c-0.28,0-0.42-0.199-0.42-0.6
		c0-0.16,0.199-0.6,0.6-1.32c0.399-0.72,1.06-1.62,1.98-2.7c2.16-2.559,3.98-3.84,5.46-3.84c0.6,0,1.08,0.229,1.44,0.689
		c0.36,0.459,0.54,1.147,0.54,2.065c0,0.319-0.06,0.978-0.18,1.975c-0.12,0.999-0.36,2.195-0.72,3.593L161.383,50.17z"/>
	<path fill="#101111" d="M179.802,55.007c-0.36,1.2-0.54,1.98-0.54,2.34c0,0.841,0.279,1.261,0.84,1.261c1,0,2.08-1.021,3.24-3.061
		c0.639-1.08,1.069-1.869,1.29-2.37c0.219-0.499,0.41-0.75,0.57-0.75c0.279,0,0.42,0.141,0.42,0.42c0,0.681-0.801,2.241-2.4,4.681
		c-0.921,1.4-1.84,2.45-2.76,3.149c-0.92,0.699-1.78,1.05-2.58,1.05c-1.601,0-2.4-1-2.4-3c0-1.039,0.22-2.329,0.66-3.869
		c0.439-1.54,1.04-3.391,1.8-5.551l2.46-7.199c0.36-1.08,0.66-2.01,0.9-2.791c0.24-0.78,0.36-1.449,0.36-2.01
		c0-0.44-0.051-0.759-0.15-0.96c-0.101-0.2-0.33-0.3-0.69-0.3c-0.48,0-0.96,0.25-1.44,0.75c-0.48,0.501-0.93,1.061-1.35,1.68
		c-0.42,0.621-0.801,1.18-1.14,1.68c-0.34,0.501-0.591,0.75-0.75,0.75c-0.201,0-0.3-0.181-0.3-0.54c0-0.16,0.159-0.54,0.48-1.14
		c0.319-0.6,0.84-1.359,1.56-2.28c2.04-2.56,3.84-3.84,5.4-3.84c0.68,0,1.22,0.22,1.62,0.66c0.399,0.44,0.6,1.06,0.6,1.86
		c0,0.84-0.141,1.761-0.42,2.76c-0.28,1-0.621,2.099-1.02,3.3L179.802,55.007z M184.872,23.837c0.58-0.819,1.23-1.23,1.95-1.23
		c0.519,0,0.939,0.201,1.26,0.6c0.32,0.4,0.48,0.92,0.48,1.56c0,1.161-0.28,2.16-0.84,3c-0.561,0.84-1.2,1.26-1.92,1.26
		c-0.561,0-1-0.219-1.32-0.66c-0.32-0.44-0.48-1.06-0.48-1.86C184.002,25.547,184.292,24.657,184.872,23.837z"/>
	<path fill="#101111" d="M209.082,33.917c0.919,0.581,1.38,1.41,1.38,2.49c0,0.4-0.16,0.78-0.48,1.14
		c-0.321,0.36-0.76,0.54-1.32,0.54c-0.681,0-1.251-0.18-1.71-0.54c-0.46-0.36-0.88-0.75-1.26-1.17c-0.38-0.42-0.741-0.81-1.08-1.17
		c-0.34-0.36-0.73-0.54-1.17-0.54c-0.88,0-1.87,0.4-2.97,1.2c-1.101,0.8-2.14,1.911-3.12,3.33c-0.981,1.42-1.811,3.13-2.49,5.13
		c-0.681,2.001-1.02,4.2-1.02,6.6c0,2.561,0.51,4.521,1.53,5.88c1.02,1.36,2.45,2.04,4.29,2.04c1.879,0,3.9-1.199,6.06-3.6
		c0.64-0.72,1.05-1.32,1.23-1.8c0.18-0.48,0.45-0.721,0.81-0.721c0.28,0,0.42,0.201,0.42,0.601c0,0.32-0.21,0.84-0.63,1.56
		c-0.42,0.721-1.07,1.581-1.95,2.58c-1.281,1.48-2.571,2.591-3.87,3.33c-1.3,0.74-2.65,1.11-4.05,1.11
		c-1.161,0-2.23-0.251-3.21-0.75c-0.98-0.5-1.84-1.2-2.58-2.101c-0.741-0.899-1.32-1.989-1.74-3.27c-0.42-1.279-0.63-2.7-0.63-4.26
		c0-2.199,0.439-4.41,1.32-6.63c0.879-2.221,2.18-4.25,3.9-6.09c1.68-2.04,3.47-3.51,5.37-4.41c1.899-0.9,3.63-1.35,5.19-1.35
		C206.901,33.047,208.161,33.338,209.082,33.917z"/>
	<path fill="#101111" d="M222.342,46.901c0.96,1.206,1.72,2.34,2.28,3.405c0.56,1.064,0.84,2.2,0.84,3.404
		c0,1.086-0.23,2.11-0.69,3.074s-1.06,1.808-1.8,2.531s-1.61,1.307-2.61,1.748c-1,0.441-2.04,0.662-3.12,0.662
		c-0.84,0-1.68-0.11-2.52-0.329c-0.84-0.221-1.6-0.511-2.28-0.87c-0.68-0.36-1.23-0.76-1.65-1.2c-0.42-0.439-0.63-0.859-0.63-1.26
		c0-1.28,0.13-2.271,0.39-2.971c0.261-0.699,0.57-1.05,0.93-1.05c0.24,0,0.44,0.09,0.6,0.271c0.159,0.18,0.309,0.42,0.45,0.72
		c0.14,0.3,0.27,0.62,0.39,0.96s0.279,0.69,0.48,1.05c0.64,1.161,1.359,2.021,2.16,2.58c0.8,0.561,1.659,0.84,2.58,0.84
		c1.119,0,2.079-0.47,2.88-1.41c0.8-0.939,1.2-2.089,1.2-3.449c0-0.92-0.19-1.771-0.57-2.551c-0.38-0.779-0.91-1.59-1.59-2.43
		l-2.52-3.06c-0.96-1.16-1.701-2.26-2.22-3.301c-0.52-1.039-0.78-2.079-0.78-3.119c0-1,0.21-1.98,0.63-2.94s0.979-1.81,1.68-2.55
		c0.699-0.74,1.509-1.33,2.43-1.77c0.92-0.44,1.899-0.66,2.94-0.66c0.76,0,1.51,0.074,2.25,0.222s1.41,0.351,2.01,0.609
		c0.601,0.259,1.08,0.575,1.44,0.948c0.36,0.374,0.54,0.781,0.54,1.221c0,1.92-0.381,2.88-1.14,2.88c-0.321,0-0.681-0.229-1.08-0.69
		c-0.4-0.459-0.87-0.969-1.41-1.53c-0.54-0.56-1.14-1.07-1.8-1.53c-0.66-0.459-1.41-0.69-2.25-0.69c-0.92,0-1.73,0.372-2.43,1.116
		c-0.701,0.743-1.05,1.677-1.05,2.802c0,0.724,0.16,1.417,0.48,2.079c0.32,0.663,0.78,1.375,1.38,2.139L222.342,46.901z"/>
	<path fill="#101111" d="M259.182,31.007c-0.12,0.521-0.4,0.78-0.84,0.78c-0.48,0-0.721-0.42-0.721-1.26
		c0-0.36,0.021-0.789,0.061-1.29c0.039-0.5,0.06-1.089,0.06-1.77c0-1.479-0.13-2.499-0.39-3.06c-0.261-0.56-0.971-0.84-2.13-0.84
		c-1.721,0-3.641,0.42-5.76,1.26c-2.121,0.84-4.121,2.1-6,3.78c-2.801,2.52-4.941,5.43-6.42,8.73c-1.48,3.3-2.221,6.771-2.221,10.41
		c0,3.921,0.88,6.971,2.641,9.15c1.76,2.181,4.159,3.27,7.199,3.27c1.2,0,2.229-0.12,3.091-0.36c0.859-0.239,1.569-0.639,2.13-1.199
		c0.439-1.44,0.77-2.68,0.989-3.721c0.22-1.039,0.391-1.839,0.511-2.399l0.899-4.561c0.12-0.759,0.181-1.2,0.181-1.319
		c0-1.04-0.42-1.681-1.261-1.92c-0.28-0.08-0.561-0.12-0.84-0.12c-0.28,0-0.54-0.01-0.78-0.03c-0.239-0.02-0.44-0.08-0.6-0.18
		c-0.16-0.1-0.24-0.29-0.24-0.57c0-0.48,0.36-0.72,1.08-0.72c0.56,0,1.26,0.04,2.101,0.12c0.84,0.08,1.819,0.119,2.939,0.119
		c1.16,0,2.12-0.06,2.88-0.18s1.32-0.18,1.681-0.18c0.479,0,0.72,0.2,0.72,0.6c0,0.32-0.081,0.531-0.24,0.63
		c-0.16,0.101-0.37,0.181-0.63,0.24c-0.261,0.06-0.54,0.12-0.84,0.18c-0.3,0.061-0.591,0.19-0.87,0.391c-0.48,0.4-0.87,1-1.17,1.8
		c-0.3,0.801-0.591,1.881-0.87,3.24l-0.66,3.359c-0.12,0.641-0.28,1.44-0.479,2.4c-0.201,0.96-0.36,2.141-0.48,3.54
		c-2.8,1.72-5.961,2.58-9.479,2.58c-2.081,0-3.99-0.351-5.73-1.05c-1.74-0.7-3.24-1.689-4.5-2.971
		c-1.26-1.279-2.24-2.819-2.939-4.62c-0.701-1.8-1.051-3.779-1.051-5.939c0-3.92,0.9-7.55,2.7-10.89c1.8-3.339,4.46-6.33,7.98-8.97
		c2.6-1.92,5.399-3.369,8.399-4.35c3-0.98,5.9-1.47,8.7-1.47c2,0,3,0.4,3,1.2c0,0.201-0.021,0.34-0.06,0.42L259.182,31.007z"/>
	<path fill="#101111" d="M268.721,50.17c2.28-5.588,4.329-9.758,6.15-12.512c1.819-2.754,3.569-4.132,5.25-4.132
		c0.68,0,1.269,0.27,1.77,0.808c0.5,0.539,0.75,1.268,0.75,2.186c0,0.999-0.24,1.817-0.72,2.455c-0.48,0.639-1.021,0.958-1.62,0.958
		c-0.48,0-0.87-0.149-1.17-0.449c-0.3-0.299-0.45-0.729-0.45-1.287c0-0.439-0.101-0.788-0.3-1.047
		c-0.201-0.259-0.42-0.389-0.66-0.389c-0.681,0-1.931,1.557-3.75,4.67c-1.82,3.113-3.951,7.823-6.39,14.129
		c-0.441,1.157-0.771,2.075-0.99,2.754c-0.221,0.679-0.42,1.197-0.601,1.557c-0.18,0.359-0.39,0.59-0.63,0.688
		c-0.239,0.1-0.62,0.149-1.14,0.149c-0.96,0-1.44-0.239-1.44-0.718c0-0.08,0.061-0.34,0.181-0.778l4.439-16.879
		c0.279-1.076,0.5-2.014,0.66-2.812c0.159-0.798,0.24-1.477,0.24-2.035c0-0.758-0.3-1.137-0.9-1.137c-0.521,0-1.04,0.28-1.56,0.84
		c-0.521,0.561-1.011,1.17-1.47,1.83c-0.461,0.66-0.881,1.26-1.261,1.8s-0.65,0.81-0.81,0.81c-0.28,0-0.42-0.199-0.42-0.6
		c0-0.16,0.199-0.6,0.6-1.32c0.399-0.72,1.06-1.62,1.98-2.7c2.16-2.559,3.979-3.84,5.46-3.84c0.6,0,1.08,0.229,1.439,0.689
		c0.36,0.459,0.54,1.147,0.54,2.065c0,0.319-0.06,0.978-0.18,1.975c-0.12,0.999-0.36,2.195-0.72,3.593L268.721,50.17z"/>
	<path fill="#101111" d="M302.141,53.207c-0.24,0.84-0.4,1.521-0.48,2.04c-0.08,0.521-0.12,0.86-0.12,1.02
		c0,0.841,0.22,1.261,0.66,1.261c0.68,0,1.62-0.84,2.82-2.521c0.52-0.72,0.859-1.279,1.02-1.68c0.16-0.399,0.399-0.601,0.721-0.601
		c0.199,0,0.3,0.141,0.3,0.421c0,0.84-0.641,2.159-1.92,3.96c-2.2,3.2-4.141,4.8-5.82,4.8c-1.28,0-1.92-0.86-1.92-2.58
		c0-0.999,0.13-2.03,0.39-3.09s0.55-2.17,0.87-3.33l1.801-6.66c-3,5.16-5.641,9.04-7.921,11.64c-2.279,2.601-4.42,3.9-6.42,3.9
		c-1.479,0-2.66-0.561-3.54-1.68c-0.879-1.12-1.319-2.74-1.319-4.86c0-2.199,0.51-4.539,1.529-7.021
		c1.021-2.479,2.59-5.039,4.71-7.68c2-2.52,4.051-4.389,6.15-5.61c2.1-1.22,3.95-1.83,5.55-1.83c1.08,0,1.95,0.21,2.61,0.63
		c0.66,0.42,1.13,0.63,1.41,0.63c0.159,0,0.31-0.09,0.45-0.27c0.14-0.18,0.309-0.38,0.51-0.6c0.199-0.219,0.45-0.42,0.75-0.6
		s0.669-0.27,1.109-0.27c0.561,0,0.939,0.051,1.141,0.15c0.199,0.101,0.3,0.371,0.3,0.81c0,0.28-0.101,0.72-0.3,1.32L302.141,53.207
		z M294.671,36.557c-1.821,1.5-3.631,3.81-5.431,6.93c-1.4,2.44-2.44,4.649-3.12,6.63c-0.681,1.979-1.02,3.65-1.02,5.01
		c0,1.161,0.26,2.04,0.78,2.64c0.519,0.601,1.179,0.9,1.979,0.9c1.119,0,2.35-0.669,3.69-2.01c1.34-1.34,2.91-3.33,4.71-5.97
		c4.2-6.16,6.3-10.4,6.3-12.721c0-1.16-0.3-2.06-0.9-2.7c-0.6-0.64-1.439-0.96-2.52-0.96
		C297.979,34.307,296.49,35.057,294.671,36.557z"/>
	<path fill="#101111" d="M320.08,33.827c0.8-0.2,1.569-0.35,2.31-0.45c0.74-0.099,1.45-0.15,2.131-0.15c2.76,0,4.89,0.801,6.39,2.4
		c1.5,1.601,2.25,3.9,2.25,6.9c0,2.279-0.411,4.58-1.23,6.899c-0.82,2.32-2.01,4.5-3.569,6.54c-2.961,3.801-6,5.7-9.12,5.7
		c-1.041,0-1.971-0.21-2.79-0.63c-0.82-0.42-1.631-1.069-2.43-1.95l-2.101,10.32c-0.08,0.399-0.12,0.739-0.12,1.02
		c0,0.601,0.181,1.029,0.54,1.29c0.36,0.26,0.77,0.46,1.23,0.601c0.459,0.14,0.87,0.26,1.229,0.359c0.36,0.1,0.54,0.29,0.54,0.57
		c0,0.439-0.22,0.66-0.66,0.66s-1.18-0.07-2.22-0.21c-1.04-0.141-2.359-0.21-3.96-0.21c-1.119,0-2.04,0.069-2.76,0.21
		c-0.72,0.14-1.28,0.21-1.68,0.21c-0.68,0-1.021-0.16-1.021-0.48c0-0.44,0.25-0.7,0.75-0.779c0.501-0.081,1.17-0.28,2.01-0.601
		c0.48-0.2,0.851-0.39,1.11-0.57c0.261-0.18,0.471-0.399,0.63-0.659c0.16-0.261,0.291-0.591,0.39-0.99
		c0.101-0.4,0.231-0.921,0.391-1.561l7.68-31.68c-0.921,0.48-1.641,0.87-2.16,1.17c-0.521,0.3-0.88,0.45-1.08,0.45
		c-0.32,0-0.479-0.1-0.479-0.3c0-0.52,0.339-0.99,1.02-1.41c0.68-0.42,1.72-0.909,3.12-1.47l1.32-5.76c0.12-0.48,0.26-0.78,0.42-0.9
		c0.159-0.12,0.439-0.18,0.84-0.18h0.78c0.56,0,0.949,0.01,1.17,0.03c0.22,0.021,0.33,0.13,0.33,0.33v0.24
		c0,0.12-0.04,0.28-0.12,0.48L320.08,33.827z M315.28,53.837c-0.16,0.844-0.24,1.608-0.24,2.29c0,1.287,0.33,2.292,0.99,3.016
		s1.55,1.084,2.67,1.084c2.84,0,5.199-1.828,7.08-5.485c1.359-2.612,2.359-5.094,3-7.445c0.64-2.351,0.96-4.33,0.96-5.938
		c0-2.09-0.54-3.698-1.62-4.823s-2.64-1.688-4.68-1.688c-0.96,0-2.2,0.221-3.721,0.663l-3.779,15.373
		C315.66,52.008,315.439,52.993,315.28,53.837z"/>
	<path fill="#101111" d="M341.499,46.907c2.36-4.6,4.53-8.03,6.51-10.29c1.98-2.26,3.931-3.39,5.851-3.39
		c1.479,0,2.68,0.648,3.6,1.941c0.92,1.294,1.38,3.136,1.38,5.525c0,2.15-0.359,4.46-1.08,6.928c-0.72,2.47-1.739,4.799-3.06,6.988
		c-1.4,2.27-2.87,3.994-4.41,5.172c-1.54,1.176-2.91,1.766-4.109,1.766c-1.001,0-1.78-0.25-2.341-0.75s-0.84-1.169-0.84-2.007
		c0-0.597,0.159-1.074,0.48-1.433c0.319-0.358,0.699-0.538,1.14-0.538c0.36,0,0.66,0.14,0.9,0.418
		c0.239,0.279,0.459,0.588,0.66,0.927c0.199,0.338,0.429,0.646,0.689,0.925c0.26,0.279,0.609,0.418,1.05,0.418
		c0.8,0,1.51-0.457,2.13-1.372s1.311-2.309,2.07-4.18c0.56-1.353,1.04-2.696,1.44-4.029c0.399-1.333,0.72-2.606,0.96-3.82
		c0.239-1.213,0.42-2.328,0.54-3.343s0.18-1.86,0.18-2.537c0-1.393-0.25-2.448-0.75-3.164c-0.501-0.716-1.15-1.075-1.95-1.075
		c-1.601,0-3.471,1.38-5.609,4.14c-2.141,2.76-4.211,6.72-6.21,11.88c-1.041,2.76-1.771,4.821-2.19,6.181s-0.67,2.1-0.75,2.22
		c-0.2,0.359-0.761,0.54-1.68,0.54c-0.44,0-0.75-0.051-0.931-0.15c-0.18-0.1-0.27-0.369-0.27-0.81c0-0.2,0.06-0.54,0.18-1.021
		l8.7-33.84c0.279-1.08,0.42-1.86,0.42-2.34c0-0.279-0.12-0.53-0.36-0.75c-0.239-0.219-0.58-0.33-1.02-0.33
		c-0.12,0-0.23,0.01-0.33,0.03c-0.101,0.021-0.21,0.03-0.33,0.03c-0.641,0-0.96-0.2-0.96-0.6c0-0.24,0.09-0.41,0.271-0.51
		c0.18-0.1,0.42-0.17,0.72-0.21c0.3-0.04,0.669-0.07,1.109-0.09c0.44-0.02,0.92-0.09,1.44-0.21c1.08-0.2,1.86-0.5,2.34-0.9
		c0.48-0.399,0.9-0.6,1.26-0.6c0.2,0,0.301,0.16,0.301,0.48c0,0.041-0.011,0.111-0.03,0.21c-0.021,0.101-0.051,0.25-0.09,0.45
		L341.499,46.907z"/>
	<path fill="#101111" d="M366.579,55.007c-0.36,1.2-0.54,1.98-0.54,2.34c0,0.841,0.279,1.261,0.84,1.261
		c0.999,0,2.079-1.021,3.24-3.061c0.64-1.08,1.069-1.869,1.29-2.37c0.219-0.499,0.409-0.75,0.569-0.75
		c0.28,0,0.421,0.141,0.421,0.42c0,0.681-0.801,2.241-2.4,4.681c-0.921,1.4-1.841,2.45-2.76,3.149c-0.921,0.699-1.78,1.05-2.58,1.05
		c-1.601,0-2.4-1-2.4-3c0-1.039,0.22-2.329,0.66-3.869c0.439-1.54,1.04-3.391,1.8-5.551l2.46-7.199c0.36-1.08,0.66-2.01,0.9-2.791
		c0.24-0.78,0.359-1.449,0.359-2.01c0-0.44-0.05-0.759-0.149-0.96c-0.101-0.2-0.33-0.3-0.69-0.3c-0.479,0-0.96,0.25-1.439,0.75
		c-0.48,0.501-0.931,1.061-1.351,1.68c-0.42,0.621-0.8,1.18-1.14,1.68c-0.34,0.501-0.591,0.75-0.75,0.75c-0.2,0-0.3-0.181-0.3-0.54
		c0-0.16,0.159-0.54,0.479-1.14s0.84-1.359,1.561-2.28c2.04-2.56,3.84-3.84,5.399-3.84c0.68,0,1.22,0.22,1.62,0.66
		c0.399,0.44,0.601,1.06,0.601,1.86c0,0.84-0.141,1.761-0.42,2.76c-0.28,1-0.621,2.099-1.021,3.3L366.579,55.007z M371.649,23.837
		c0.579-0.819,1.229-1.23,1.949-1.23c0.52,0,0.939,0.201,1.261,0.6c0.319,0.4,0.479,0.92,0.479,1.56c0,1.161-0.28,2.16-0.84,3
		c-0.561,0.84-1.2,1.26-1.92,1.26c-0.561,0-1-0.219-1.32-0.66c-0.32-0.44-0.479-1.06-0.479-1.86
		C370.779,25.547,371.068,24.657,371.649,23.837z"/>
	<path fill="#101111" d="M395.858,33.917c0.92,0.581,1.38,1.41,1.38,2.49c0,0.4-0.16,0.78-0.48,1.14
		c-0.32,0.36-0.76,0.54-1.319,0.54c-0.681,0-1.251-0.18-1.71-0.54c-0.461-0.36-0.881-0.75-1.26-1.17
		c-0.381-0.42-0.741-0.81-1.08-1.17c-0.341-0.36-0.73-0.54-1.17-0.54c-0.881,0-1.871,0.4-2.971,1.2c-1.101,0.8-2.14,1.911-3.12,3.33
		c-0.98,1.42-1.81,3.13-2.489,5.13c-0.681,2.001-1.021,4.2-1.021,6.6c0,2.561,0.51,4.521,1.53,5.88c1.02,1.36,2.449,2.04,4.29,2.04
		c1.88,0,3.899-1.199,6.06-3.6c0.64-0.72,1.05-1.32,1.23-1.8c0.18-0.48,0.45-0.721,0.81-0.721c0.279,0,0.42,0.201,0.42,0.601
		c0,0.32-0.21,0.84-0.63,1.56c-0.42,0.721-1.07,1.581-1.95,2.58c-1.28,1.48-2.57,2.591-3.87,3.33c-1.3,0.74-2.649,1.11-4.05,1.11
		c-1.16,0-2.23-0.251-3.21-0.75c-0.98-0.5-1.84-1.2-2.58-2.101c-0.74-0.899-1.319-1.989-1.739-3.27
		c-0.421-1.279-0.631-2.7-0.631-4.26c0-2.199,0.44-4.41,1.32-6.63c0.88-2.221,2.18-4.25,3.9-6.09c1.68-2.04,3.47-3.51,5.37-4.41
		c1.899-0.9,3.63-1.35,5.189-1.35C393.678,33.047,394.938,33.338,395.858,33.917z"/>
	<path fill="#101111" d="M409.118,46.901c0.96,1.206,1.72,2.34,2.28,3.405c0.56,1.064,0.84,2.2,0.84,3.404
		c0,1.086-0.23,2.11-0.69,3.074s-1.06,1.808-1.8,2.531s-1.61,1.307-2.609,1.748c-1.001,0.441-2.04,0.662-3.12,0.662
		c-0.84,0-1.681-0.11-2.521-0.329c-0.84-0.221-1.6-0.511-2.279-0.87c-0.68-0.36-1.23-0.76-1.65-1.2
		c-0.42-0.439-0.63-0.859-0.63-1.26c0-1.28,0.13-2.271,0.39-2.971c0.261-0.699,0.57-1.05,0.93-1.05c0.24,0,0.441,0.09,0.601,0.271
		c0.159,0.18,0.31,0.42,0.45,0.72c0.14,0.3,0.27,0.62,0.39,0.96s0.279,0.69,0.48,1.05c0.639,1.161,1.359,2.021,2.159,2.58
		c0.8,0.561,1.66,0.84,2.58,0.84c1.12,0,2.08-0.47,2.88-1.41c0.8-0.939,1.2-2.089,1.2-3.449c0-0.92-0.19-1.771-0.569-2.551
		c-0.381-0.779-0.911-1.59-1.591-2.43l-2.52-3.06c-0.96-1.16-1.701-2.26-2.22-3.301c-0.521-1.039-0.78-2.079-0.78-3.119
		c0-1,0.21-1.98,0.63-2.94s0.979-1.81,1.68-2.55c0.7-0.74,1.51-1.33,2.431-1.77c0.919-0.44,1.899-0.66,2.939-0.66
		c0.76,0,1.51,0.074,2.25,0.222s1.41,0.351,2.01,0.609c0.601,0.259,1.08,0.575,1.44,0.948c0.36,0.374,0.54,0.781,0.54,1.221
		c0,1.92-0.381,2.88-1.14,2.88c-0.321,0-0.681-0.229-1.08-0.69c-0.4-0.459-0.87-0.969-1.41-1.53c-0.54-0.56-1.14-1.07-1.8-1.53
		c-0.66-0.459-1.41-0.69-2.25-0.69c-0.921,0-1.73,0.372-2.431,1.116c-0.7,0.743-1.05,1.677-1.05,2.802
		c0,0.724,0.159,1.417,0.48,2.079c0.319,0.663,0.779,1.375,1.38,2.139L409.118,46.901z"/>
	<path fill="#101111" d="M416.708,56.717c0.459-0.619,1.01-0.93,1.649-0.93c1.12,0,1.681,0.78,1.681,2.34
		c0,0.801-0.23,1.54-0.69,2.22s-1.011,1.021-1.649,1.021c-1.121,0-1.681-0.78-1.681-2.34
		C416.018,58.107,416.248,57.338,416.708,56.717z"/>
	<path fill="#101111" d="M431.678,61.188c-0.6,2.279-1.311,4.249-2.13,5.909c-0.82,1.66-1.68,3.05-2.58,4.17
		c-0.899,1.12-1.83,1.95-2.79,2.49s-1.88,0.811-2.76,0.811c-1.239,0-2.27-0.36-3.09-1.08c-0.819-0.721-1.23-1.541-1.23-2.46
		c0-0.641,0.181-1.141,0.54-1.5c0.36-0.36,0.761-0.54,1.2-0.54c0.48,0,0.87,0.199,1.17,0.6c0.3,0.399,0.58,0.84,0.84,1.32
		c0.261,0.479,0.521,0.92,0.78,1.319c0.261,0.399,0.61,0.601,1.05,0.601c0.601,0,1.141-0.341,1.62-1.021
		c0.48-0.681,0.971-1.739,1.47-3.18c0.501-1.439,1.041-3.261,1.62-5.46c0.579-2.2,1.29-4.819,2.13-7.86l4.32-15.959
		c0.199-0.68,0.33-1.24,0.39-1.68c0.061-0.439,0.091-0.72,0.091-0.84c0-0.44-0.281-0.66-0.841-0.66c-0.4,0-0.82,0.25-1.26,0.75
		c-0.44,0.5-0.87,1.041-1.29,1.62c-0.42,0.58-0.801,1.12-1.14,1.62c-0.341,0.501-0.591,0.75-0.75,0.75c-0.24,0-0.36-0.181-0.36-0.54
		c0-0.16,0.17-0.54,0.51-1.14s0.87-1.359,1.591-2.28c1.039-1.28,1.989-2.24,2.85-2.88c0.859-0.639,1.71-0.96,2.55-0.96
		c0.601,0,1.1,0.201,1.5,0.6c0.399,0.4,0.601,0.98,0.601,1.74c0,0.44-0.051,0.93-0.15,1.47c-0.101,0.54-0.25,1.15-0.45,1.83
		L431.678,61.188z M437.738,23.837c0.56-0.819,1.199-1.23,1.92-1.23c0.52,0,0.939,0.201,1.26,0.6c0.319,0.4,0.479,0.92,0.479,1.56
		c0,1.161-0.27,2.16-0.81,3s-1.17,1.26-1.89,1.26c-0.561,0-1.001-0.219-1.32-0.66c-0.32-0.44-0.48-1.06-0.48-1.86
		C436.897,25.547,437.178,24.657,437.738,23.837z"/>
	<path fill="#101111" d="M451.417,46.901c0.96,1.206,1.72,2.34,2.28,3.405c0.56,1.064,0.84,2.2,0.84,3.404
		c0,1.086-0.23,2.11-0.69,3.074s-1.06,1.808-1.8,2.531s-1.61,1.307-2.609,1.748c-1.001,0.441-2.04,0.662-3.12,0.662
		c-0.84,0-1.681-0.11-2.521-0.329c-0.84-0.221-1.6-0.511-2.279-0.87c-0.68-0.36-1.23-0.76-1.65-1.2
		c-0.42-0.439-0.63-0.859-0.63-1.26c0-1.28,0.13-2.271,0.39-2.971c0.261-0.699,0.57-1.05,0.93-1.05c0.24,0,0.441,0.09,0.601,0.271
		c0.159,0.18,0.31,0.42,0.45,0.72c0.14,0.3,0.27,0.62,0.39,0.96s0.279,0.69,0.48,1.05c0.639,1.161,1.359,2.021,2.159,2.58
		c0.8,0.561,1.66,0.84,2.58,0.84c1.12,0,2.08-0.47,2.88-1.41c0.8-0.939,1.2-2.089,1.2-3.449c0-0.92-0.19-1.771-0.569-2.551
		c-0.381-0.779-0.911-1.59-1.591-2.43l-2.52-3.06c-0.96-1.16-1.701-2.26-2.22-3.301c-0.521-1.039-0.78-2.079-0.78-3.119
		c0-1,0.21-1.98,0.63-2.94s0.979-1.81,1.68-2.55c0.7-0.74,1.51-1.33,2.431-1.77c0.919-0.44,1.899-0.66,2.939-0.66
		c0.76,0,1.51,0.074,2.25,0.222s1.41,0.351,2.01,0.609c0.601,0.259,1.08,0.575,1.44,0.948c0.36,0.374,0.54,0.781,0.54,1.221
		c0,1.92-0.381,2.88-1.14,2.88c-0.321,0-0.681-0.229-1.08-0.69c-0.4-0.459-0.87-0.969-1.41-1.53c-0.54-0.56-1.14-1.07-1.8-1.53
		c-0.66-0.459-1.41-0.69-2.25-0.69c-0.921,0-1.73,0.372-2.431,1.116c-0.7,0.743-1.05,1.677-1.05,2.802
		c0,0.724,0.159,1.417,0.48,2.079c0.319,0.663,0.779,1.375,1.38,2.139L451.417,46.901z"/>
</g>
<g>
	<path fill="#101111" d="M3.802,51.254V24.525c0-0.928,0.267-1.775,0.8-2.541s1.241-1.311,2.123-1.636l24.502-8.91
		c0.51-0.186,1.021-0.279,1.531-0.279c0.51,0,1.021,0.093,1.531,0.279l24.501,8.91c0.882,0.325,1.589,0.87,2.123,1.636
		s0.801,1.613,0.801,2.541v26.729c0,0.812-0.209,1.566-0.626,2.263c-0.418,0.696-0.987,1.241-1.706,1.636L34.882,68.517
		c-0.65,0.371-1.357,0.558-2.123,0.558s-1.474-0.187-2.123-0.558L6.134,55.152c-0.72-0.395-1.288-0.939-1.706-1.636
		S3.802,52.066,3.802,51.254z M8.466,24.456l24.293,8.84l24.292-8.84l-24.292-8.84L8.466,24.456z M34.986,63.4L57.26,51.254V29.12
		l-22.274,8.109V63.4z"/>
</g>
<g>
</g>
<g>
</g>
<g>
</g>
<g>
</g>
<g>
</g>
<g>
</g>
<g>
</g>
<g>
</g>
<g>
</g>
<g>
</g>
<g>
</g>
<g>
</g>
<g>
</g>
<g>
</g>
<g>
</g>
</svg>
