<svg width="16" height="16" viewBox="0 0 80 80">
  <g>
    <path
      fill="#101111"
      d="M3.802,51.254V24.525c0-0.928,0.267-1.775,0.8-2.541s1.241-1.311,2.123-1.636l24.502-8.91   c0.51-0.186,1.021-0.279,1.531-0.279c0.51,0,1.021,0.093,1.531,0.279l24.501,8.91c0.882,0.325,1.589,0.87,2.123,1.636   s0.801,1.613,0.801,2.541v26.729c0,0.812-0.209,1.566-0.626,2.263c-0.418,0.696-0.987,1.241-1.706,1.636L34.882,68.517   c-0.65,0.371-1.357,0.558-2.123,0.558s-1.474-0.187-2.123-0.558L6.134,55.152c-0.72-0.395-1.288-0.939-1.706-1.636   S3.802,52.066,3.802,51.254z M8.466,24.456l24.293,8.84l24.292-8.84l-24.292-8.84L8.466,24.456z M34.986,63.4L57.26,51.254V29.12   l-22.274,8.109V63.4z"
    />
  </g>
</svg>